<svg width="260" height="307" viewBox="0 0 260 307" fill="none" xmlns="http://www.w3.org/2000/svg" id="dots-black">
<circle cx="105.986" cy="58.8812" r="11.7762" fill="black"/>
<circle cx="105.986" cy="105.986" r="11.7762" fill="black"/>
<circle cx="153.091" cy="105.986" r="11.7762" fill="black"/>
<circle cx="153.091" cy="58.8812" r="11.7762" fill="black"/>
<circle cx="105.986" cy="11.7762" r="11.7762" fill="black"/>
<circle cx="153.091" cy="11.7762" r="11.7762" fill="black"/>
<circle cx="200.196" cy="58.8812" r="11.7762" fill="black"/>
<circle cx="200.196" cy="105.986" r="11.7762" fill="black"/>
<circle cx="247.301" cy="105.986" r="11.7762" fill="black"/>
<circle cx="247.301" cy="58.8812" r="11.7762" fill="black"/>
<circle cx="105.986" cy="153.091" r="11.7762" fill="black"/>
<circle cx="153.091" cy="153.091" r="11.7762" fill="black"/>
<circle cx="200.196" cy="153.091" r="11.7762" fill="black"/>
<circle cx="200.196" cy="200.196" r="11.7762" fill="black"/>
<circle cx="153.091" cy="200.196" r="11.7762" fill="black"/>
<circle cx="105.986" cy="200.196" r="11.7762" fill="black"/>
<circle cx="58.8812" cy="153.091" r="11.7762" fill="black"/>
<circle cx="58.8812" cy="105.986" r="11.7762" fill="black"/>
<circle cx="58.8812" cy="200.196" r="11.7762" fill="black"/>
<circle cx="58.8812" cy="247.301" r="11.7762" fill="black"/>
<circle cx="105.986" cy="247.301" r="11.7762" fill="black"/>
<circle cx="153.091" cy="247.301" r="11.7762" fill="black"/>
<circle cx="200.196" cy="247.301" r="11.7762" fill="black"/>
<circle cx="153.091" cy="294.406" r="11.7762" fill="black"/>
<circle cx="105.986" cy="294.406" r="11.7762" fill="black"/>
<circle cx="58.8812" cy="294.406" r="11.7762" fill="black"/>
<circle cx="11.7762" cy="294.406" r="11.7762" fill="black"/>
</svg>
