<svg width="366" height="309" viewBox="0 0 366 309" fill="none" xmlns="http://www.w3.org/2000/svg">
<circle cx="294.955" cy="126.409" r="14.0455" transform="rotate(90 294.955 126.409)" fill="#FFBA00"/>
<circle cx="238.773" cy="126.409" r="14.0455" transform="rotate(90 238.773 126.409)" fill="#FFBA00"/>
<circle cx="238.773" cy="182.591" r="14.0455" transform="rotate(90 238.773 182.591)" fill="#FFBA00"/>
<circle cx="294.955" cy="182.591" r="14.0455" transform="rotate(90 294.955 182.591)" fill="#FFBA00"/>
<circle cx="351.136" cy="126.409" r="14.0455" transform="rotate(90 351.136 126.409)" fill="#FFBA00"/>
<circle cx="351.136" cy="182.591" r="14.0455" transform="rotate(90 351.136 182.591)" fill="#FFBA00"/>
<circle cx="294.955" cy="238.773" r="14.0455" transform="rotate(90 294.955 238.773)" fill="#FFBA00"/>
<circle cx="238.773" cy="238.773" r="14.0455" transform="rotate(90 238.773 238.773)" fill="#FFBA00"/>
<circle cx="238.773" cy="294.955" r="14.0455" transform="rotate(90 238.773 294.955)" fill="#FFBA00"/>
<circle cx="294.955" cy="294.955" r="14.0455" transform="rotate(90 294.955 294.955)" fill="#FFBA00"/>
<circle cx="182.591" cy="126.409" r="14.0455" transform="rotate(90 182.591 126.409)" fill="#FFBA00"/>
<circle cx="182.591" cy="182.591" r="14.0455" transform="rotate(90 182.591 182.591)" fill="#FFBA00"/>
<circle cx="182.591" cy="238.773" r="14.0455" transform="rotate(90 182.591 238.773)" fill="#FFBA00"/>
<circle cx="126.409" cy="238.773" r="14.0455" transform="rotate(90 126.409 238.773)" fill="#FFBA00"/>
<circle cx="126.409" cy="182.591" r="14.0455" transform="rotate(90 126.409 182.591)" fill="#FFBA00"/>
<circle cx="126.409" cy="126.409" r="14.0455" transform="rotate(90 126.409 126.409)" fill="#FFBA00"/>
<circle cx="182.591" cy="70.2274" r="14.0455" transform="rotate(90 182.591 70.2274)" fill="#FFBA00"/>
<circle cx="238.773" cy="70.2274" r="14.0455" transform="rotate(90 238.773 70.2274)" fill="#FFBA00"/>
<circle cx="126.409" cy="70.2274" r="14.0455" transform="rotate(90 126.409 70.2274)" fill="#FFBA00"/>
<circle cx="70.2273" cy="70.2273" r="14.0455" transform="rotate(90 70.2273 70.2273)" fill="#FFBA00"/>
<circle cx="70.2273" cy="126.409" r="14.0455" transform="rotate(90 70.2273 126.409)" fill="#FFBA00"/>
<circle cx="70.2273" cy="182.591" r="14.0455" transform="rotate(90 70.2273 182.591)" fill="#FFBA00"/>
<circle cx="70.2273" cy="238.773" r="14.0455" transform="rotate(90 70.2273 238.773)" fill="#FFBA00"/>
<circle cx="14.0455" cy="182.591" r="14.0455" transform="rotate(90 14.0455 182.591)" fill="#FFBA00"/>
<circle cx="14.0455" cy="126.409" r="14.0455" transform="rotate(90 14.0455 126.409)" fill="#FFBA00"/>
<circle cx="14.0455" cy="70.2273" r="14.0455" transform="rotate(90 14.0455 70.2273)" fill="#FFBA00"/>
<circle cx="14.0455" cy="14.0454" r="14.0455" transform="rotate(90 14.0455 14.0454)" fill="#FFBA00"/>
</svg>
