<svg width="309" height="366" viewBox="0 0 309 366" fill="none" xmlns="http://www.w3.org/2000/svg">
<circle cx="126.409" cy="70.2273" r="14.0455" fill="#C4C4C4"/>
<circle cx="126.409" cy="126.409" r="14.0455" fill="#C4C4C4"/>
<circle cx="182.591" cy="126.409" r="14.0455" fill="#C4C4C4"/>
<circle cx="182.591" cy="70.2273" r="14.0455" fill="#C4C4C4"/>
<circle cx="126.409" cy="14.0455" r="14.0455" fill="#C4C4C4"/>
<circle cx="182.591" cy="14.0455" r="14.0455" fill="#C4C4C4"/>
<circle cx="238.773" cy="70.2273" r="14.0455" fill="#C4C4C4"/>
<circle cx="238.773" cy="126.409" r="14.0455" fill="#C4C4C4"/>
<circle cx="294.955" cy="126.409" r="14.0455" fill="#C4C4C4"/>
<circle cx="294.955" cy="70.2273" r="14.0455" fill="#C4C4C4"/>
<circle cx="126.409" cy="182.591" r="14.0455" fill="#C4C4C4"/>
<circle cx="182.591" cy="182.591" r="14.0455" fill="#C4C4C4"/>
<circle cx="238.773" cy="182.591" r="14.0455" fill="#C4C4C4"/>
<circle cx="238.773" cy="238.773" r="14.0455" fill="#C4C4C4"/>
<circle cx="182.591" cy="238.773" r="14.0455" fill="#C4C4C4"/>
<circle cx="126.409" cy="238.773" r="14.0455" fill="#C4C4C4"/>
<circle cx="70.2274" cy="182.591" r="14.0455" fill="#C4C4C4"/>
<circle cx="70.2274" cy="126.409" r="14.0455" fill="#C4C4C4"/>
<circle cx="70.2274" cy="238.773" r="14.0455" fill="#C4C4C4"/>
<circle cx="70.2274" cy="294.954" r="14.0455" fill="#C4C4C4"/>
<circle cx="126.409" cy="294.954" r="14.0455" fill="#C4C4C4"/>
<circle cx="182.591" cy="294.954" r="14.0455" fill="#C4C4C4"/>
<circle cx="238.773" cy="294.954" r="14.0455" fill="#C4C4C4"/>
<circle cx="182.591" cy="351.136" r="14.0455" fill="#C4C4C4"/>
<circle cx="126.409" cy="351.136" r="14.0455" fill="#C4C4C4"/>
<circle cx="70.2274" cy="351.136" r="14.0455" fill="#C4C4C4"/>
<circle cx="14.0455" cy="351.136" r="14.0455" fill="#C4C4C4"/>
</svg>
