<?xml version="1.0" encoding="UTF-8" standalone="no"?>
<!DOCTYPE svg PUBLIC "-//W3C//DTD SVG 1.1//EN" "http://www.w3.org/Graphics/SVG/1.1/DTD/svg11.dtd">
<svg width="100%" height="100%" viewBox="0 0 646 113" version="1.1" xmlns="http://www.w3.org/2000/svg" xmlns:xlink="http://www.w3.org/1999/xlink" xml:space="preserve" xmlns:serif="http://www.serif.com/" style="fill-rule:evenodd;clip-rule:evenodd;stroke-linecap:square;stroke-miterlimit:1;">
    <g transform="matrix(1,0,0,1,-73.0347,-243.497)">
        <g transform="matrix(0.106508,0,0,0.106508,-1772,-51.8401)">
            <g transform="matrix(1,0,0,1,13800,-17250)">
                <path d="M3545.48,20154.5L4445.48,21054.5L4500,21077.1L4800,21077.1L4854.52,20945.5L3954.52,20045.5L3900,20022.9L3600,20022.9L3545.48,20154.5ZM3600,20100L4500,21000L4800,21000L3900,20100L3600,20100Z" style="fill:white;"/>
                <g transform="matrix(0.419602,-0.419602,0.419602,0.419602,-6027.18,14248)">
                    <path d="M4973.9,20550C5346.69,20550 5648.9,20247.8 5648.9,19875C5648.9,19502.2 5346.69,19200 4973.9,19200L4973.9,19335C5272.13,19335 5513.9,19576.8 5513.9,19875C5513.9,20173.2 5272.13,20415 4973.9,20415L4973.9,20550Z" style="fill:white;"/>
                </g>
                <g transform="matrix(1,0,0,1,-13660,17250)">
                    <path d="M17850,3750L17550,3450" style="fill:none;stroke:white;stroke-width:77.08px;"/>
                </g>
            </g>
            <g transform="matrix(0.465869,0,0,0.465869,10209.8,1595.06)">
                <g transform="matrix(1217.12,0,0,1217.12,19225.6,3477.14)">
                    <path d="M0.406,0.012C0.507,0.012 0.599,-0.031 0.665,-0.1L0.577,-0.182C0.534,-0.133 0.473,-0.102 0.406,-0.102C0.279,-0.102 0.172,-0.212 0.172,-0.344C0.172,-0.475 0.279,-0.585 0.406,-0.585C0.472,-0.585 0.534,-0.554 0.576,-0.505L0.665,-0.588C0.599,-0.656 0.507,-0.699 0.406,-0.699C0.21,-0.699 0.045,-0.537 0.045,-0.344C0.045,-0.151 0.21,0.012 0.406,0.012Z" style="fill:white;fill-rule:nonzero;"/>
                </g>
                <g transform="matrix(1217.12,0,0,1217.12,20065.4,3477.14)">
                    <path d="M0.376,0.012C0.554,0.012 0.679,-0.114 0.679,-0.293L0.679,-0.687L0.555,-0.687L0.555,-0.297C0.555,-0.183 0.481,-0.101 0.376,-0.101C0.272,-0.101 0.198,-0.183 0.198,-0.297L0.198,-0.687L0.073,-0.687L0.073,-0.293C0.073,-0.114 0.199,0.012 0.376,0.012Z" style="fill:white;fill-rule:nonzero;"/>
                </g>
                <g transform="matrix(1217.12,0,0,1217.12,20980.7,3477.14)">
                    <path d="M0.325,0.011C0.489,0.011 0.583,-0.076 0.583,-0.199C0.583,-0.324 0.487,-0.37 0.344,-0.402C0.235,-0.427 0.184,-0.447 0.184,-0.503C0.184,-0.551 0.231,-0.593 0.3,-0.593C0.368,-0.593 0.437,-0.564 0.497,-0.512L0.565,-0.604C0.496,-0.663 0.414,-0.7 0.305,-0.7C0.16,-0.7 0.058,-0.612 0.058,-0.492C0.058,-0.363 0.157,-0.322 0.299,-0.289C0.409,-0.263 0.458,-0.244 0.458,-0.187C0.458,-0.138 0.414,-0.096 0.329,-0.096C0.239,-0.096 0.166,-0.132 0.103,-0.189L0.031,-0.1C0.107,-0.029 0.207,0.011 0.325,0.011Z" style="fill:white;fill-rule:nonzero;"/>
                </g>
                <g transform="matrix(1217.12,0,0,1217.12,21742.6,3477.14)">
                    <path d="M0.256,0L0.38,0L0.38,-0.573L0.6,-0.573L0.6,-0.687L0.036,-0.687L0.036,-0.573L0.256,-0.573L0.256,0Z" style="fill:white;fill-rule:nonzero;"/>
                </g>
                <g transform="matrix(1217.12,0,0,1217.12,22471.7,3477.14)">
                    <path d="M0.406,0.012C0.601,0.012 0.766,-0.151 0.766,-0.344C0.766,-0.537 0.601,-0.699 0.406,-0.699C0.21,-0.699 0.045,-0.537 0.045,-0.344C0.045,-0.151 0.21,0.012 0.406,0.012ZM0.406,-0.102C0.279,-0.102 0.172,-0.212 0.172,-0.344C0.172,-0.475 0.279,-0.585 0.406,-0.585C0.532,-0.585 0.638,-0.475 0.638,-0.344C0.638,-0.212 0.532,-0.102 0.406,-0.102Z" style="fill:white;fill-rule:nonzero;"/>
                </g>
                <g transform="matrix(1217.12,0,0,1217.12,23457.5,3477.14)">
                    <path d="M0.08,0L0.205,0L0.205,-0.459L0.431,-0.04L0.658,-0.459L0.658,0L0.782,0L0.782,-0.687L0.658,-0.687L0.431,-0.268L0.205,-0.687L0.08,-0.687L0.08,0Z" style="fill:white;fill-rule:nonzero;"/>
                </g>
                <g transform="matrix(1217.12,0,0,1217.12,24852.3,3477.14)">
                    <path d="M0.539,-0.687L0.539,-0.407L0.196,-0.407L0.196,-0.687L0.071,-0.687L0.071,0L0.196,0L0.196,-0.293L0.539,-0.293L0.539,0L0.664,0L0.664,-0.687L0.539,-0.687Z" style="fill:white;fill-rule:nonzero;"/>
                </g>
                <g transform="matrix(1217.12,0,0,1217.12,25746.9,3477.14)">
                    <path d="M0.594,-0.687L0.376,-0.166L0.158,-0.687L0.02,-0.687L0.307,0L0.446,0L0.733,-0.687L0.594,-0.687Z" style="fill:white;fill-rule:nonzero;"/>
                </g>
                <g transform="matrix(1217.12,0,0,1217.12,26557.5,3477.14)">
                    <path d="M0.594,0L0.732,0L0.445,-0.687L0.306,-0.687L0.019,0L0.158,0L0.21,-0.124L0.542,-0.124L0.594,0ZM0.255,-0.232L0.376,-0.521L0.497,-0.232L0.255,-0.232Z" style="fill:white;fill-rule:nonzero;"/>
                </g>
                <g transform="matrix(1217.12,0,0,1217.12,27472.8,3477.14)">
                    <path d="M0.406,0.012C0.507,0.012 0.599,-0.031 0.665,-0.1L0.577,-0.182C0.534,-0.133 0.473,-0.102 0.406,-0.102C0.279,-0.102 0.172,-0.212 0.172,-0.344C0.172,-0.475 0.279,-0.585 0.406,-0.585C0.472,-0.585 0.534,-0.554 0.576,-0.505L0.665,-0.588C0.599,-0.656 0.507,-0.699 0.406,-0.699C0.21,-0.699 0.045,-0.537 0.045,-0.344C0.045,-0.151 0.21,0.012 0.406,0.012Z" style="fill:white;fill-rule:nonzero;"/>
                </g>
                <g transform="matrix(1217.12,0,0,1217.12,19225.6,4694.26)">
                    <path d="M0.406,0.012C0.507,0.012 0.599,-0.031 0.665,-0.1L0.577,-0.182C0.534,-0.133 0.473,-0.102 0.406,-0.102C0.279,-0.102 0.172,-0.212 0.172,-0.344C0.172,-0.475 0.279,-0.585 0.406,-0.585C0.472,-0.585 0.534,-0.554 0.576,-0.505L0.665,-0.588C0.599,-0.656 0.507,-0.699 0.406,-0.699C0.21,-0.699 0.045,-0.537 0.045,-0.344C0.045,-0.151 0.21,0.012 0.406,0.012Z" style="fill:white;fill-rule:nonzero;"/>
                </g>
                <g transform="matrix(1217.12,0,0,1217.12,20047.2,4694.26)">
                    <path d="M0.406,0.012C0.601,0.012 0.766,-0.151 0.766,-0.344C0.766,-0.537 0.601,-0.699 0.406,-0.699C0.21,-0.699 0.045,-0.537 0.045,-0.344C0.045,-0.151 0.21,0.012 0.406,0.012ZM0.406,-0.102C0.279,-0.102 0.172,-0.212 0.172,-0.344C0.172,-0.475 0.279,-0.585 0.406,-0.585C0.532,-0.585 0.638,-0.475 0.638,-0.344C0.638,-0.212 0.532,-0.102 0.406,-0.102Z" style="fill:white;fill-rule:nonzero;"/>
                </g>
                <g transform="matrix(1217.12,0,0,1217.12,21033,4694.26)">
                    <path d="M0.594,0L0.732,0L0.445,-0.687L0.306,-0.687L0.019,0L0.158,0L0.21,-0.124L0.542,-0.124L0.594,0ZM0.255,-0.232L0.376,-0.521L0.497,-0.232L0.255,-0.232Z" style="fill:white;fill-rule:nonzero;"/>
                </g>
                <g transform="matrix(1217.12,0,0,1217.12,21870.4,4694.26)">
                    <path d="M0.256,0L0.38,0L0.38,-0.573L0.6,-0.573L0.6,-0.687L0.036,-0.687L0.036,-0.573L0.256,-0.573L0.256,0Z" style="fill:white;fill-rule:nonzero;"/>
                </g>
                <g transform="matrix(1217.12,0,0,1217.12,22644.5,4694.26)">
                    <rect x="0.073" y="-0.687" width="0.124" height="0.687" style="fill:white;fill-rule:nonzero;"/>
                </g>
                <g transform="matrix(1217.12,0,0,1217.12,22973.1,4694.26)">
                    <path d="M0.08,0L0.205,0L0.205,-0.483L0.568,0L0.692,0L0.692,-0.687L0.568,-0.687L0.568,-0.204L0.205,-0.687L0.08,-0.687L0.08,0Z" style="fill:white;fill-rule:nonzero;"/>
                </g>
                <g transform="matrix(1217.12,0,0,1217.12,23912.7,4694.26)">
                    <path d="M0.388,-0.276L0.559,-0.276L0.559,-0.151C0.516,-0.12 0.46,-0.102 0.408,-0.102C0.28,-0.102 0.172,-0.212 0.172,-0.344C0.172,-0.475 0.28,-0.585 0.408,-0.585C0.475,-0.585 0.549,-0.555 0.592,-0.505L0.681,-0.588C0.615,-0.657 0.508,-0.699 0.408,-0.699C0.211,-0.699 0.045,-0.537 0.045,-0.344C0.045,-0.151 0.211,0.012 0.408,0.012C0.508,0.012 0.615,-0.031 0.681,-0.1L0.681,-0.378L0.388,-0.378L0.388,-0.276Z" style="fill:white;fill-rule:nonzero;"/>
                </g>
                <g transform="matrix(1217.12,0,0,1217.12,24817,4694.26)">
                    <path d="M0.325,0.011C0.489,0.011 0.583,-0.076 0.583,-0.199C0.583,-0.324 0.487,-0.37 0.344,-0.402C0.235,-0.427 0.184,-0.447 0.184,-0.503C0.184,-0.551 0.231,-0.593 0.3,-0.593C0.368,-0.593 0.437,-0.564 0.497,-0.512L0.565,-0.604C0.496,-0.663 0.414,-0.7 0.305,-0.7C0.16,-0.7 0.058,-0.612 0.058,-0.492C0.058,-0.363 0.157,-0.322 0.299,-0.289C0.409,-0.263 0.458,-0.244 0.458,-0.187C0.458,-0.138 0.414,-0.096 0.329,-0.096C0.239,-0.096 0.166,-0.132 0.103,-0.189L0.031,-0.1C0.107,-0.029 0.207,0.011 0.325,0.011Z" style="fill:white;fill-rule:nonzero;"/>
                </g>
            </g>
        </g>
    </g>
</svg>
